<svg id="Layer_1" data-name="Layer 1" xmlns="http://www.w3.org/2000/svg" viewBox="0 0 775.21 216.5"><defs><style>.cls-1{fill:#c54531;}</style></defs><title>logo-llantas-monterrey</title><path class="cls-1" d="M108.7,259.9S58,273,111.2,295.4c36.5,15.3,77.8,34,100.1,44.1A108.32,108.32,0,0,0,36.4,218.2c15.8.6,76.3,3.3,99.2,14,26.6,12.4-26.9,27.7-26.9,27.7" transform="translate(-4.1 -187.1)"/><path class="cls-1" d="M105.4,250.1c18.2-6.1,24.4-11.5-8.6-17.9-25.5-4.9-55.1-6-67.5-6.3a108.26,108.26,0,0,0,83.1,177.7,106.35,106.35,0,0,0,38-6.9c-28.5-29.5-73.6-77.5-87.2-98.3-19.9-31,24.2-42.2,42.2-48.3" transform="translate(-4.1 -187.1)"/><path class="cls-1" d="M250.93,306a3.54,3.54,0,0,1-3-1.3,3.33,3.33,0,0,1-.6-3.1l11-54.8a5,5,0,0,1,1.8-3.1,5.6,5.6,0,0,1,3.5-1.3h43.6a34,34,0,0,1,7.8.8,9.42,9.42,0,0,1,4.81,2.7,9.09,9.09,0,0,1,1.9,5.2,29.52,29.52,0,0,1-.6,8l-.3,1.1a37.82,37.82,0,0,1-2.31,7.8,16.57,16.57,0,0,1-3.59,5.1,14.67,14.67,0,0,1-5.41,2.9,24.29,24.29,0,0,1-7.5,1l9.31,22.4-.2-.1a6.47,6.47,0,0,1,.4,1.3,3.18,3.18,0,0,1-.2,1.3,5,5,0,0,1-1.8,3.1,5.58,5.58,0,0,1-3.6,1.2h-6.31a3.74,3.74,0,0,1-1.69-.4l-2-1.7-11-26.9H268.53l-4.8,24.7a5.79,5.79,0,0,1-2,3.1,5.6,5.6,0,0,1-3.5,1.3h-7.3Zm22.3-51.9-2.3,11.3H302a1.7,1.7,0,0,0,1.3-.4,6.17,6.17,0,0,0,.7-2l1.2-6.4a5.5,5.5,0,0,0,.2-2c-.1-.3-.5-.4-1.1-.4h-31.1Z" transform="translate(-4.1 -187.1)"/><path class="cls-1" d="M365.83,304.9a2.79,2.79,0,0,1-.5-2.7l4-20.3H337l-4,20.3a4.84,4.84,0,0,1-1.7,2.7,4.78,4.78,0,0,1-3,1.1h-6.4a3.31,3.31,0,0,1-2.6-1.1,2.79,2.79,0,0,1-.5-2.7l7.9-40.2c1.5-4,3.5-6.7,6-8.3s6.2-2.3,10.9-2.3h31.1c4.7,0,8,.8,10,2.4s2.8,4.4,2.5,8.3l-7.9,40.1a4.84,4.84,0,0,1-1.7,2.7,4.78,4.78,0,0,1-3,1.1h-6.3a2.86,2.86,0,0,1-2.5-1.1m-23.59-43.5a1.64,1.64,0,0,0-1.61,1.1l-1.6,8.4h32.4l1.7-8.4c.1-.8-.2-1.1-.8-1.1Z" transform="translate(-4.1 -187.1)"/><path class="cls-1" d="M448.94,276.2a14.63,14.63,0,0,1,1,4,17.16,17.16,0,0,1-.5,5.3l-1.31,6.2a25.31,25.31,0,0,1-2.1,6.9,12.65,12.65,0,0,1-3.4,4.4,13.32,13.32,0,0,1-5.1,2.4,30.26,30.26,0,0,1-7.2.7h-41.9a3.31,3.31,0,0,1-2.6-1.1,2.79,2.79,0,0,1-.5-2.7l9.5-47.3a4.22,4.22,0,0,1,1.6-2.7,4.82,4.82,0,0,1,3-1.1h41.9a26.82,26.82,0,0,1,6.8.7,7.88,7.88,0,0,1,4.1,2.4,7.59,7.59,0,0,1,1.6,4.5,24.82,24.82,0,0,1-.5,6.9l-.3,1.1c-.79,4-2.09,7.1-4.09,9.4m-13.31,5H403.74l-3,14.8H432a1.25,1.25,0,0,0,1.1-.4,5.17,5.17,0,0,0,.6-1.7l2.2-10.6c.19-1.3.09-2-.31-2.1m2.4-10.4a5.17,5.17,0,0,0,.6-1.7l1-5.8a3.62,3.62,0,0,0,.11-1.7c-.11-.3-.4-.4-.9-.4h-31.1l-2,10h31.1c.6,0,1-.1,1.19-.4" transform="translate(-4.1 -187.1)"/><path class="cls-1" d="M503.34,246.8a5,5,0,0,1,1.79-3.1,5.52,5.52,0,0,1,3.5-1.2h58.8a3.77,3.77,0,0,1,3,1.2,3.69,3.69,0,0,1,.8,3.1l-.8,2.9a5,5,0,0,1-1.8,3.1,5.5,5.5,0,0,1-3.5,1.2h-21.6L534,301.5a6,6,0,0,1-2,3.2,5.6,5.6,0,0,1-3.5,1.3h-7.2a3.62,3.62,0,0,1-3.1-1.3,3.46,3.46,0,0,1-.5-3.2l9.5-47.5h-21a3.77,3.77,0,0,1-3-1.2,3.69,3.69,0,0,1-.8-3.1Z" transform="translate(-4.1 -187.1)"/><path class="cls-1" d="M569.43,306a3.31,3.31,0,0,1-2.6-1.1,2.79,2.79,0,0,1-.5-2.7l9.5-47.3a4.22,4.22,0,0,1,1.6-2.7,4.82,4.82,0,0,1,3-1.1h6.4a3,3,0,0,1,2.5,1.1,3.09,3.09,0,0,1,.6,2.7l-9.4,47.3a4.74,4.74,0,0,1-1.7,2.7,4.82,4.82,0,0,1-3,1.1Z" transform="translate(-4.1 -187.1)"/><path class="cls-1" d="M589.63,306a3.31,3.31,0,0,1-2.6-1.1,2.82,2.82,0,0,1-.5-2.7l9.5-47.3a4.31,4.31,0,0,1,1.6-2.7,4.82,4.82,0,0,1,3-1.1h37.61a26.74,26.74,0,0,1,6.79.7,7.84,7.84,0,0,1,4.1,2.4,7.66,7.66,0,0,1,1.61,4.5,24.82,24.82,0,0,1-.5,6.9l-.3.9a29.8,29.8,0,0,1-2,6.7,13.33,13.33,0,0,1-3.1,4.4,13.59,13.59,0,0,1-4.6,2.5,29.1,29.1,0,0,1-6.5.9l8.1,19.3-.21-.1a2.17,2.17,0,0,1,.3,1.1,2.34,2.34,0,0,1-.2,1.1,4.22,4.22,0,0,1-1.6,2.7,4.8,4.8,0,0,1-3.1,1h-5.3a2.73,2.73,0,0,1-1.4-.4l-1.4-.8-9.8-23.9h-14.2l-4.2,21.3a4.95,4.95,0,0,1-4.7,3.8h-6.4Zm19.3-44.8-2,9.8h26.8a1.25,1.25,0,0,0,1.1-.4,5.17,5.17,0,0,0,.6-1.7l1-5.5a3.43,3.43,0,0,0,.1-1.7c-.1-.3-.4-.4-.9-.4l-26.7-.1Z" transform="translate(-4.1 -187.1)"/><path class="cls-1" d="M652,306a3.31,3.31,0,0,1-2.6-1.1,2.79,2.79,0,0,1-.5-2.7l8.7-43.4a35,35,0,0,1,1-4.4,4,4,0,0,1,1.71-2.3,7.29,7.29,0,0,1,3.4-.9c1.5-.1,3.6-.1,6.39-.1h45.3a3,3,0,0,1,2.6,1.1,3.52,3.52,0,0,1,.5,2.7l-.6,3.3a4.25,4.25,0,0,1-1.59,2.7,4.93,4.93,0,0,1-3.1,1.1h-40.4a4.23,4.23,0,0,0-1.6.2c-.2.1-.3.6-.5,1.4l-1.4,7.3h42.2a3.4,3.4,0,0,1,2.7,1.1,3.07,3.07,0,0,1,.5,2.7l-.7,3.4a4.22,4.22,0,0,1-1.6,2.7,4.89,4.89,0,0,1-3.1,1.1H667l-2.5,13.1h42.3a3,3,0,0,1,2.5,1.1,3.09,3.09,0,0,1,.6,2.7l-.8,3.3a4.22,4.22,0,0,1-1.6,2.7,4.89,4.89,0,0,1-3.1,1.1L652,306Z" transform="translate(-4.1 -187.1)"/><path class="cls-1" d="M760.63,271.7a26.72,26.72,0,0,1,6.8.7,7.88,7.88,0,0,1,4.1,2.4,7.59,7.59,0,0,1,1.6,4.5,24.82,24.82,0,0,1-.5,6.9l-2,9.5a12.41,12.41,0,0,1-4.6,7.8c-2.3,1.8-6.2,2.7-11.5,2.7h-36.2a3,3,0,0,1-2.5-1.1,3.09,3.09,0,0,1-.6-2.7l.7-3.1a4.95,4.95,0,0,1,4.7-3.8h35.6a1.25,1.25,0,0,0,1.1-.4,5.17,5.17,0,0,0,.6-1.7l1.2-6a3.43,3.43,0,0,0,.1-1.7c-.1-.3-.4-.4-.9-.4h-24.9a25.32,25.32,0,0,1-6.8-.7,8.3,8.3,0,0,1-4.1-2.4,6.92,6.92,0,0,1-1.6-4.4,31,31,0,0,1,.6-6.9l1-5.2a24.34,24.34,0,0,1,2.2-6.9,12.37,12.37,0,0,1,3.5-4.5,13.4,13.4,0,0,1,5.1-2.4,30.26,30.26,0,0,1,7.2-.7h35.6a3,3,0,0,1,2.6,1.1,3.43,3.43,0,0,1,.5,2.7l-.7,3.1a4.22,4.22,0,0,1-1.6,2.7,4.82,4.82,0,0,1-3,1.1h-35.3a1.59,1.59,0,0,0-1.2.4,2.69,2.69,0,0,0-.59,1.7l-1,5.7a3.19,3.19,0,0,0-.1,1.7c.1.3.4.4.9.4h24v-.1Z" transform="translate(-4.1 -187.1)"/><path class="cls-1" d="M455.13,306a3.31,3.31,0,0,1-2.6-1.1,2.79,2.79,0,0,1-.5-2.7l9.5-47.3a4.31,4.31,0,0,1,1.6-2.7,4.82,4.82,0,0,1,3-1.1h6.4a3,3,0,0,1,2.5,1.1,3.09,3.09,0,0,1,.6,2.7l-9.39,47.3a5,5,0,0,1-4.71,3.8Z" transform="translate(-4.1 -187.1)"/><path class="cls-1" d="M483.13,235.6a3.09,3.09,0,0,0-2.5-1.1h-6.39a4.78,4.78,0,0,0-3,1.1l-.5.5h0l-.11.1-6.7,8.4a2.79,2.79,0,0,0,.5,2.7,3.31,3.31,0,0,0,2.6,1.1h6.4a4.82,4.82,0,0,0,3-1.1l.6-.6,6.71-8.4a3.25,3.25,0,0,0-.61-2.7" transform="translate(-4.1 -187.1)"/><path class="cls-1" d="M400.13,321.7a10.33,10.33,0,0,1,6.61-2.4c3.3,0,5.5,1.1,6.6,3.2a5.77,5.77,0,0,1,.6,3.6h-4.1a5.25,5.25,0,0,0-.6-2.1,3.53,3.53,0,0,0-3-1.2,5.13,5.13,0,0,0-3.9,1.8,10.64,10.64,0,0,0-2.4,5c-.5,2.1-.4,3.8.3,4.8a3.37,3.37,0,0,0,3.1,1.6,5.24,5.24,0,0,0,3.6-1.4,8.33,8.33,0,0,0,1.5-2.2h4.1a11.46,11.46,0,0,1-3.8,5.1,9.92,9.92,0,0,1-6.1,2c-2.8,0-4.9-.9-6.1-2.7s-1.5-4.2-.8-7.3a13.17,13.17,0,0,1,4.39-7.8" transform="translate(-4.1 -187.1)"/><path class="cls-1" d="M424,319.7h4.6l2.81,19.2h-4.5l-.4-3.9h-7.3l-2.2,3.9h-4.3Zm-2.79,11.9h5l-.8-7.5Z" transform="translate(-4.1 -187.1)"/><polygon class="cls-1" points="434.13 132.6 438.24 132.6 434.74 148.3 444.54 148.3 443.74 151.8 429.94 151.8 434.13 132.6"/><polygon class="cls-1" points="450.44 151.8 446.33 151.8 450.44 132.6 454.54 132.6 450.44 151.8"/><path class="cls-1" d="M473.93,320.1a4.78,4.78,0,0,1,2.8,2.4,6.7,6.7,0,0,1,.7,3.1,16.55,16.55,0,0,1-.3,3.2,16.93,16.93,0,0,1-3,6.5,9,9,0,0,1-7.39,3.6h-8.5l4.2-19.2h8.5a11.36,11.36,0,0,1,3,.4m-8.19,3L463,335.6h3.8a5.37,5.37,0,0,0,4.7-2.8,11.43,11.43,0,0,0,1.4-3.7,8.44,8.44,0,0,0,0-4.5c-.4-1-1.5-1.6-3.4-1.6h-3.79Z" transform="translate(-4.1 -187.1)"/><path class="cls-1" d="M487.93,319.7h4.6l2.8,19.2h-4.5l-.4-3.9h-7.3l-2.2,3.9h-4.3ZM485,331.6h5l-.79-7.5Z" transform="translate(-4.1 -187.1)"/><path class="cls-1" d="M513.43,320.1a4.78,4.78,0,0,1,2.8,2.4,6.7,6.7,0,0,1,.7,3.1,16.55,16.55,0,0,1-.3,3.2,16.93,16.93,0,0,1-3,6.5,9,9,0,0,1-7.39,3.6h-8.5l4.2-19.2h8.5a10.7,10.7,0,0,1,3,.4m-8.19,3-2.71,12.5h3.8a5.37,5.37,0,0,0,4.7-2.8,11.43,11.43,0,0,0,1.4-3.7,8.44,8.44,0,0,0,0-4.5c-.4-1-1.5-1.6-3.4-1.6h-3.79Z" transform="translate(-4.1 -187.1)"/><polygon class="cls-1" points="539.13 136 528.63 136 527.84 140.1 537.34 140.1 536.63 143.4 527.03 143.4 526.03 148.3 536.93 148.3 536.13 151.8 521.24 151.8 525.43 132.6 539.84 132.6 539.13 136"/><polygon class="cls-1" points="543.43 132.6 547.74 132.6 552.74 146 555.63 132.6 559.43 132.6 555.24 151.8 551.13 151.8 546.03 138.2 543.13 151.8 539.24 151.8 543.43 132.6"/><polygon class="cls-1" points="585.24 132.6 584.43 136 578.53 136 575.13 151.8 570.93 151.8 574.43 136 568.53 136 569.24 132.6 585.24 132.6"/><path class="cls-1" d="M602.53,337.2a10.37,10.37,0,0,1-6.9,2.2c-2.79,0-4.79-.7-6-2.2-1.6-1.8-2-4.5-1.29-7.9a12.85,12.85,0,0,1,4.7-7.9,10.39,10.39,0,0,1,6.9-2.2c2.8,0,4.8.7,6,2.2,1.6,1.8,2,4.4,1.3,7.9a12.82,12.82,0,0,1-4.71,7.9m.6-7.9a6.82,6.82,0,0,0-.39-5,3.76,3.76,0,0,0-3.5-1.8,5.94,5.94,0,0,0-4.3,1.8,9.13,9.13,0,0,0-2.5,5c-.5,2.2-.4,3.8.4,5a3.76,3.76,0,0,0,3.5,1.8,5.94,5.94,0,0,0,4.29-1.8,9.35,9.35,0,0,0,2.5-5" transform="translate(-4.1 -187.1)"/><path class="cls-1" d="M623.93,320.1a4.78,4.78,0,0,1,2.8,2.4,6.7,6.7,0,0,1,.7,3.1,16.55,16.55,0,0,1-.3,3.2,16.93,16.93,0,0,1-3,6.5,9,9,0,0,1-7.39,3.6h-8.5l4.2-19.2h8.5a11.36,11.36,0,0,1,3,.4m-8.19,3L613,335.6h3.8a5.37,5.37,0,0,0,4.7-2.8,11.43,11.43,0,0,0,1.4-3.7,8.44,8.44,0,0,0,0-4.5c-.4-1-1.5-1.6-3.4-1.6h-3.79Z" transform="translate(-4.1 -187.1)"/><path class="cls-1" d="M643.63,337.2a10.36,10.36,0,0,1-6.89,2.2c-2.8,0-4.8-.7-6-2.2-1.61-1.8-2-4.5-1.3-7.9a12.94,12.94,0,0,1,4.7-7.9,10.39,10.39,0,0,1,6.9-2.2c2.8,0,4.8.7,6,2.2,1.6,1.8,2,4.4,1.3,7.9a13.29,13.29,0,0,1-4.71,7.9m.61-7.9a6.81,6.81,0,0,0-.4-5,3.76,3.76,0,0,0-3.5-1.8,6,6,0,0,0-4.3,1.8,9.13,9.13,0,0,0-2.5,5c-.5,2.2-.4,3.8.4,5a3.76,3.76,0,0,0,3.5,1.8,6,6,0,0,0,4.3-1.8,10.36,10.36,0,0,0,2.5-5" transform="translate(-4.1 -187.1)"/><path class="cls-1" d="M662.63,321.7a10.35,10.35,0,0,1,6.61-2.4c3.29,0,5.5,1.1,6.6,3.2a5.84,5.84,0,0,1,.6,3.6h-4.1a5.25,5.25,0,0,0-.6-2.1,3.53,3.53,0,0,0-3-1.2,5.13,5.13,0,0,0-3.9,1.8,10.64,10.64,0,0,0-2.4,5c-.5,2.1-.4,3.8.3,4.8a3.37,3.37,0,0,0,3.1,1.6,5.24,5.24,0,0,0,3.6-1.4,8.33,8.33,0,0,0,1.5-2.2H675a11.46,11.46,0,0,1-3.8,5.1,10.14,10.14,0,0,1-6.1,2c-2.8,0-4.9-.9-6.1-2.7s-1.5-4.2-.8-7.3a12.63,12.63,0,0,1,4.39-7.8" transform="translate(-4.1 -187.1)"/><path class="cls-1" d="M686.53,319.7h4.6l2.8,19.2h-4.5L689,335h-7.29l-2.21,3.9h-4.29Zm-2.9,11.9h5l-.79-7.5Z" transform="translate(-4.1 -187.1)"/><path class="cls-1" d="M713.73,319.7h5.9l-4.2,19.2h-3.8l2.8-13c.1-.4.2-.9.41-1.6a6,6,0,0,0,.29-1.6l-7.2,16.1h-4l-.2-16.1a15.69,15.69,0,0,0-.3,1.6c-.09.7-.3,1.2-.3,1.6l-2.79,13h-3.8l4.2-19.2h6l.3,15.1Z" transform="translate(-4.1 -187.1)"/><polygon class="cls-1" points="718.93 151.8 714.84 151.8 719.03 132.6 723.13 132.6 718.93 151.8"/><polygon class="cls-1" points="726.84 132.6 731.24 132.6 736.13 146 739.03 132.6 742.84 132.6 738.74 151.8 734.53 151.8 729.53 138.2 726.53 151.8 722.74 151.8 726.84 132.6"/><path class="cls-1" d="M762.13,337.2a10.35,10.35,0,0,1-6.9,2.2c-2.8,0-4.8-.7-6-2.2-1.6-1.8-2-4.5-1.3-7.9a12.94,12.94,0,0,1,4.7-7.9,10.4,10.4,0,0,1,6.91-2.2c2.8,0,4.8.7,6,2.2,1.59,1.8,2,4.4,1.3,7.9a12.78,12.78,0,0,1-4.71,7.9m.6-7.9a6.76,6.76,0,0,0-.4-5,3.76,3.76,0,0,0-3.5-1.8,6,6,0,0,0-4.3,1.8,9.13,9.13,0,0,0-2.5,5c-.5,2.2-.4,3.8.4,5a3.77,3.77,0,0,0,3.5,1.8,6,6,0,0,0,4.3-1.8,10.28,10.28,0,0,0,2.5-5" transform="translate(-4.1 -187.1)"/></svg>