<?xml version="1.0" encoding="utf-8"?>
<!-- Generator: Adobe Illustrator 21.1.0, SVG Export Plug-In . SVG Version: 6.00 Build 0)  -->
<svg version="1.1" id="Layer_1" xmlns="http://www.w3.org/2000/svg" xmlns:xlink="http://www.w3.org/1999/xlink" x="0px" y="0px"
	 viewBox="0 0 612 792" style="enable-background:new 0 0 612 792;" xml:space="preserve">
<style type="text/css">
	.st0{fill:#C54531;}
</style>
<g>
	<g>
		<path class="st0" d="M312.9,202.9c0,0-50.7,13.1,2.5,35.5c36.5,15.3,77.8,34,100.1,44.1c6-13.4,9.4-28.5,9.4-44.1
			c0-59.9-48.6-108.3-108.3-108.3c-29.7,0-56.5,11.9-76,31.1c15.8,0.6,76.3,3.3,99.2,14C366.4,187.6,312.9,202.9,312.9,202.9"/>
		<path class="st0" d="M309.6,193.1c18.2-6.1,24.4-11.5-8.6-17.9c-25.5-4.9-55.1-6-67.5-6.3c-15.6,18.8-25.2,43.1-25.2,69.4
			c0,59.9,48.6,108.3,108.3,108.3c13.4,0,26.2-2.4,38-6.9c-28.5-29.5-73.6-77.5-87.2-98.3C247.5,210.4,291.6,199.2,309.6,193.1"/>
	</g>
	<g>
		<path class="st0" d="M54.3,450.7c-1.3,0-2.3-0.4-3-1.3c-0.7-0.8-0.9-1.9-0.6-3.1l11-54.8c0.2-1.2,0.8-2.3,1.8-3.1
			c1-0.8,2.2-1.3,3.5-1.3h43.6c3.1,0,5.7,0.3,7.8,0.8c2.1,0.5,3.7,1.5,4.8,2.7c1.1,1.3,1.7,3,1.9,5.2c0.2,2.2,0,4.8-0.6,8l-0.3,1.1
			c-0.6,3.1-1.4,5.7-2.3,7.8c-1,2.1-2.2,3.8-3.6,5.1c-1.5,1.3-3.2,2.2-5.4,2.9s-4.6,1-7.5,1l9.3,22.4l-0.2-0.1
			c0.2,0.4,0.3,0.9,0.4,1.3c0,0.4,0,0.8-0.2,1.3c-0.2,1.2-0.8,2.3-1.8,3.1c-1,0.8-2.2,1.2-3.6,1.2H103c-0.5,0-1.1-0.1-1.7-0.4
			l-2-1.7l-11-26.9H71.9l-4.8,24.7c-0.3,1.2-1,2.3-2,3.1c-1,0.8-2.2,1.3-3.5,1.3h-7.3V450.7z M76.6,398.8l-2.3,11.3h31.1
			c0.6,0,1-0.1,1.3-0.4c0.2-0.3,0.5-1,0.7-2l1.2-6.4c0.2-1,0.3-1.7,0.2-2c-0.1-0.3-0.5-0.4-1.1-0.4H76.6V398.8z"/>
		<path class="st0" d="M169.2,449.6c-0.6-0.7-0.8-1.6-0.5-2.7l4-20.3h-32.3l-4,20.3c-0.3,1.1-0.8,2-1.7,2.7c-0.9,0.7-1.9,1.1-3,1.1
			h-6.4c-1.1,0-2-0.4-2.6-1.1s-0.8-1.6-0.5-2.7l7.9-40.2c1.5-4,3.5-6.7,6-8.3c2.5-1.5,6.2-2.3,10.9-2.3h31.1c4.7,0,8,0.8,10,2.4
			s2.8,4.4,2.5,8.3l-7.9,40.1c-0.3,1.1-0.8,2-1.7,2.7c-0.9,0.7-1.9,1.1-3,1.1h-6.3C170.6,450.7,169.8,450.4,169.2,449.6
			 M145.6,406.1c-0.8,0-1.3,0.4-1.6,1.1l-1.6,8.4h32.4l1.7-8.4c0.1-0.8-0.2-1.1-0.8-1.1H145.6z"/>
		<path class="st0" d="M252.3,420.9c0.5,1.1,0.8,2.5,1,4c0.1,1.5,0,3.3-0.5,5.3l-1.3,6.2c-0.5,2.8-1.2,5.1-2.1,6.9s-2,3.3-3.4,4.4
			s-3.1,1.9-5.1,2.4s-4.4,0.7-7.2,0.7h-41.9c-1.1,0-2-0.4-2.6-1.1s-0.8-1.6-0.5-2.7l9.5-47.3c0.2-1.1,0.7-2,1.6-2.7s1.9-1.1,3-1.1
			h41.9c2.7,0,4.9,0.2,6.8,0.7c1.8,0.5,3.2,1.3,4.1,2.4c0.9,1.1,1.5,2.6,1.6,4.5c0.2,1.9,0,4.2-0.5,6.9l-0.3,1.1
			C255.6,415.5,254.3,418.6,252.3,420.9 M239,425.9h-31.9l-3,14.8h31.3c0.5,0,0.9-0.1,1.1-0.4s0.4-0.8,0.6-1.7l2.2-10.6
			C239.5,426.7,239.4,426,239,425.9 M241.4,415.5c0.2-0.3,0.4-0.8,0.6-1.7l1-5.8c0.2-0.9,0.2-1.5,0.1-1.7c-0.1-0.3-0.4-0.4-0.9-0.4
			h-31.1l-2,10h31.1C240.8,415.9,241.2,415.8,241.4,415.5"/>
		<path class="st0" d="M306.7,391.5c0.2-1.2,0.8-2.3,1.8-3.1c1-0.8,2.2-1.2,3.5-1.2h58.8c1.3,0,2.3,0.4,3,1.2c0.7,0.8,1,1.9,0.8,3.1
			l-0.8,2.9c-0.2,1.2-0.8,2.3-1.8,3.1c-1,0.8-2.2,1.2-3.5,1.2h-21.6l-9.5,47.5c-0.3,1.3-1,2.3-2,3.2c-1,0.8-2.2,1.3-3.5,1.3h-7.2
			c-1.4,0-2.4-0.4-3.1-1.3c-0.7-0.8-0.8-1.9-0.5-3.2l9.5-47.5h-21c-1.3,0-2.3-0.4-3-1.2c-0.7-0.8-1-1.9-0.8-3.1L306.7,391.5z"/>
		<path class="st0" d="M372.8,450.7c-1.1,0-2-0.4-2.6-1.1s-0.8-1.6-0.5-2.7l9.5-47.3c0.2-1.1,0.7-2,1.6-2.7c0.9-0.7,1.9-1.1,3-1.1
			h6.4c1.1,0,2,0.4,2.5,1.1c0.6,0.7,0.8,1.6,0.6,2.7l-9.4,47.3c-0.3,1.1-0.8,2-1.7,2.7s-1.9,1.1-3,1.1H372.8z"/>
		<path class="st0" d="M393,450.7c-1.1,0-2-0.4-2.6-1.1s-0.8-1.6-0.5-2.7l9.5-47.3c0.2-1.1,0.7-2,1.6-2.7c0.9-0.7,1.9-1.1,3-1.1
			h37.6c2.7,0,4.9,0.2,6.8,0.7c1.8,0.5,3.2,1.3,4.1,2.4c0.9,1.1,1.5,2.6,1.6,4.5c0.2,1.9,0,4.2-0.5,6.9l-0.3,0.9
			c-0.5,2.7-1.2,4.9-2,6.7c-0.8,1.8-1.9,3.3-3.1,4.4c-1.3,1.1-2.8,1.9-4.6,2.5c-1.8,0.5-4,0.8-6.5,0.9l8.1,19.3l-0.2-0.1
			c0.2,0.4,0.3,0.7,0.3,1.1c0,0.3,0,0.7-0.2,1.1c-0.2,1.1-0.7,2-1.6,2.7c-0.9,0.7-1.9,1-3.1,1h-5.3c-0.4,0-0.9-0.1-1.4-0.4l-1.4-0.8
			l-9.8-23.9h-14.2l-4.2,21.3c-0.3,1.1-0.8,2-1.7,2.7s-1.9,1.1-3,1.1H393V450.7z M412.3,405.9l-2,9.8h26.8c0.5,0,0.9-0.1,1.1-0.4
			c0.2-0.3,0.4-0.8,0.6-1.7l1-5.5c0.2-0.9,0.2-1.5,0.1-1.7c-0.1-0.3-0.4-0.4-0.9-0.4L412.3,405.9L412.3,405.9z"/>
		<path class="st0" d="M455.4,450.7c-1.1,0-2-0.4-2.6-1.1s-0.8-1.6-0.5-2.7l8.7-43.4c0.3-1.9,0.7-3.4,1-4.4s0.9-1.8,1.7-2.3
			s1.9-0.8,3.4-0.9s3.6-0.1,6.4-0.1h45.3c1.2,0,2.1,0.4,2.6,1.1s0.7,1.7,0.5,2.7l-0.6,3.3c-0.2,1.1-0.7,2-1.6,2.7
			c-0.9,0.7-1.9,1.1-3.1,1.1h-40.4c-0.9,0-1.4,0.1-1.6,0.2c-0.2,0.1-0.3,0.6-0.5,1.4l-1.4,7.3h42.2c1.2,0,2.1,0.4,2.7,1.1
			c0.6,0.7,0.7,1.6,0.5,2.7l-0.7,3.4c-0.2,1.1-0.7,2-1.6,2.7c-0.9,0.7-1.9,1.1-3.1,1.1h-42.3l-2.5,13.1h42.3c1.1,0,2,0.4,2.5,1.1
			c0.6,0.7,0.8,1.6,0.6,2.7l-0.8,3.3c-0.2,1.1-0.7,2-1.6,2.7c-0.9,0.7-1.9,1.1-3.1,1.1L455.4,450.7L455.4,450.7z"/>
		<path class="st0" d="M564,416.4c2.7,0,4.9,0.2,6.8,0.7c1.8,0.5,3.2,1.3,4.1,2.4c0.9,1.1,1.5,2.6,1.6,4.5c0.2,1.9,0,4.2-0.5,6.9
			l-2,9.5c-0.7,3.4-2.2,6-4.6,7.8c-2.3,1.8-6.2,2.7-11.5,2.7h-36.2c-1.1,0-2-0.4-2.5-1.1c-0.6-0.7-0.8-1.6-0.6-2.7l0.7-3.1
			c0.3-1.1,0.8-2,1.7-2.7s1.9-1.1,3-1.1h35.6c0.5,0,0.9-0.1,1.1-0.4c0.2-0.3,0.4-0.8,0.6-1.7l1.2-6c0.2-0.9,0.2-1.5,0.1-1.7
			c-0.1-0.3-0.4-0.4-0.9-0.4h-24.9c-2.8,0-5.1-0.2-6.8-0.7c-1.8-0.5-3.1-1.3-4.1-2.4s-1.5-2.6-1.6-4.4s0.1-4.1,0.6-6.9l1-5.2
			c0.5-2.7,1.2-5,2.2-6.9c0.9-1.9,2.1-3.4,3.5-4.5s3.1-1.9,5.1-2.4s4.4-0.7,7.2-0.7h35.6c1.2,0,2.1,0.4,2.6,1.1s0.7,1.6,0.5,2.7
			l-0.7,3.1c-0.2,1.1-0.7,2-1.6,2.7c-0.9,0.7-1.9,1.1-3,1.1H542c-0.5,0-0.9,0.1-1.2,0.4s-0.5,0.8-0.6,1.7l-1,5.7
			c-0.2,0.9-0.2,1.5-0.1,1.7c0.1,0.3,0.4,0.4,0.9,0.4h24V416.4z"/>
		<path class="st0" d="M258.5,450.7c-1.1,0-2-0.4-2.6-1.1c-0.6-0.7-0.8-1.6-0.5-2.7l9.5-47.3c0.2-1.1,0.7-2,1.6-2.7s1.9-1.1,3-1.1
			h6.4c1.1,0,2,0.4,2.5,1.1c0.6,0.7,0.8,1.6,0.6,2.7l-9.4,47.3c-0.3,1.1-0.8,2-1.7,2.7c-0.9,0.7-1.9,1.1-3,1.1H258.5z"/>
		<path class="st0" d="M286.5,380.3c-0.6-0.7-1.4-1.1-2.5-1.1h-6.4c-1.1,0-2.1,0.4-3,1.1c-0.2,0.2-0.4,0.4-0.5,0.5l0,0l0,0
			c0,0,0,0-0.1,0.1l-6.7,8.4c-0.3,1.1-0.1,2,0.5,2.7s1.5,1.1,2.6,1.1h6.4c1.1,0,2.1-0.4,3-1.1c0.2-0.2,0.4-0.4,0.6-0.6l6.7-8.4
			C287.3,382,287.1,381.1,286.5,380.3"/>
		<path class="st0" d="M203.5,466.4c2-1.6,4.2-2.4,6.6-2.4c3.3,0,5.5,1.1,6.6,3.2c0.6,1.2,0.8,2.4,0.6,3.6h-4.1
			c-0.1-0.9-0.3-1.6-0.6-2.1c-0.6-0.8-1.6-1.2-3-1.2c-1.5,0-2.8,0.6-3.9,1.8c-1.1,1.2-1.9,2.8-2.4,5c-0.5,2.1-0.4,3.8,0.3,4.8
			c0.7,1.1,1.7,1.6,3.1,1.6s2.6-0.5,3.6-1.4c0.5-0.5,1-1.2,1.5-2.2h4.1c-0.8,2.1-2.1,3.8-3.8,5.1c-1.7,1.3-3.8,2-6.1,2
			c-2.8,0-4.9-0.9-6.1-2.7c-1.2-1.8-1.5-4.2-0.8-7.3C199.8,470.8,201.3,468.2,203.5,466.4"/>
		<path class="st0" d="M227.4,464.4h4.6l2.8,19.2h-4.5l-0.4-3.9h-7.3l-2.2,3.9h-4.3L227.4,464.4z M224.6,476.3h5l-0.8-7.5
			L224.6,476.3z"/>
		<polygon class="st0" points="241.6,464.4 245.7,464.4 242.2,480.1 252,480.1 251.2,483.6 237.4,483.6 		"/>
		<polygon class="st0" points="257.9,483.6 253.8,483.6 257.9,464.4 262,464.4 		"/>
		<path class="st0" d="M277.3,464.8c1.3,0.4,2.2,1.3,2.8,2.4c0.5,1,0.7,2,0.7,3.1s-0.1,2.2-0.3,3.2c-0.6,2.5-1.6,4.7-3,6.5
			c-1.9,2.4-4.4,3.6-7.4,3.6h-8.5l4.2-19.2h8.5C275.6,464.4,276.5,464.6,277.3,464.8 M269.1,467.8l-2.7,12.5h3.8
			c1.9,0,3.5-0.9,4.7-2.8c0.6-1,1.1-2.2,1.4-3.7c0.4-1.9,0.4-3.4,0-4.5c-0.4-1-1.5-1.6-3.4-1.6h-3.8V467.8z"/>
		<path class="st0" d="M291.3,464.4h4.6l2.8,19.2h-4.5l-0.4-3.9h-7.3l-2.2,3.9H280L291.3,464.4z M288.4,476.3h5l-0.8-7.5
			L288.4,476.3z"/>
		<path class="st0" d="M316.8,464.8c1.3,0.4,2.2,1.3,2.8,2.4c0.5,1,0.7,2,0.7,3.1s-0.1,2.2-0.3,3.2c-0.6,2.5-1.6,4.7-3,6.5
			c-1.9,2.4-4.4,3.6-7.4,3.6h-8.5l4.2-19.2h8.5C315.1,464.4,316.1,464.6,316.8,464.8 M308.6,467.8l-2.7,12.5h3.8
			c1.9,0,3.5-0.9,4.7-2.8c0.6-1,1.1-2.2,1.4-3.7c0.4-1.9,0.4-3.4,0-4.5c-0.4-1-1.5-1.6-3.4-1.6h-3.8V467.8z"/>
		<polygon class="st0" points="346.6,467.8 336.1,467.8 335.3,471.9 344.8,471.9 344.1,475.2 334.5,475.2 333.5,480.1 344.4,480.1 
			343.6,483.6 328.7,483.6 332.9,464.4 347.3,464.4 		"/>
		<polygon class="st0" points="350.9,464.4 355.2,464.4 360.2,477.8 363.1,464.4 366.9,464.4 362.7,483.6 358.6,483.6 353.5,470 
			350.6,483.6 346.7,483.6 		"/>
		<polygon class="st0" points="392.7,464.4 391.9,467.8 386,467.8 382.6,483.6 378.4,483.6 381.9,467.8 376,467.8 376.7,464.4 		"/>
		<path class="st0" d="M405.9,481.9c-1.8,1.5-4.1,2.2-6.9,2.2c-2.8,0-4.8-0.7-6-2.2c-1.6-1.8-2-4.5-1.3-7.9c0.8-3.5,2.3-6.1,4.7-7.9
			c1.8-1.5,4.1-2.2,6.9-2.2c2.8,0,4.8,0.7,6,2.2c1.6,1.8,2,4.4,1.3,7.9C409.9,477.4,408.3,480.1,405.9,481.9 M406.5,474
			c0.5-2.1,0.3-3.8-0.4-5s-1.9-1.8-3.5-1.8s-3.1,0.6-4.3,1.8c-1.2,1.2-2.1,2.8-2.5,5c-0.5,2.2-0.4,3.8,0.4,5
			c0.7,1.2,1.9,1.8,3.5,1.8s3.1-0.6,4.3-1.8C405.2,477.8,406.1,476.1,406.5,474"/>
		<path class="st0" d="M427.3,464.8c1.3,0.4,2.2,1.3,2.8,2.4c0.5,1,0.7,2,0.7,3.1s-0.1,2.2-0.3,3.2c-0.6,2.5-1.6,4.7-3,6.5
			c-1.9,2.4-4.4,3.6-7.4,3.6h-8.5l4.2-19.2h8.5C425.6,464.4,426.5,464.6,427.3,464.8 M419.1,467.8l-2.7,12.5h3.8
			c1.9,0,3.5-0.9,4.7-2.8c0.6-1,1.1-2.2,1.4-3.7c0.4-1.9,0.4-3.4,0-4.5c-0.4-1-1.5-1.6-3.4-1.6h-3.8V467.8z"/>
		<path class="st0" d="M447,481.9c-1.8,1.5-4.1,2.2-6.9,2.2c-2.8,0-4.8-0.7-6-2.2c-1.6-1.8-2-4.5-1.3-7.9c0.8-3.5,2.3-6.1,4.7-7.9
			c1.8-1.5,4.1-2.2,6.9-2.2c2.8,0,4.8,0.7,6,2.2c1.6,1.8,2,4.4,1.3,7.9C450.9,477.4,449.4,480.1,447,481.9 M447.6,474
			c0.5-2.1,0.3-3.8-0.4-5s-1.9-1.8-3.5-1.8s-3.1,0.6-4.3,1.8c-1.2,1.2-2.1,2.8-2.5,5c-0.5,2.2-0.4,3.8,0.4,5
			c0.7,1.2,1.9,1.8,3.5,1.8s3.1-0.6,4.3-1.8C446.3,477.8,447.1,476.1,447.6,474"/>
		<path class="st0" d="M466,466.4c2-1.6,4.2-2.4,6.6-2.4c3.3,0,5.5,1.1,6.6,3.2c0.6,1.2,0.8,2.4,0.6,3.6h-4.1
			c-0.1-0.9-0.3-1.6-0.6-2.1c-0.6-0.8-1.6-1.2-3-1.2c-1.5,0-2.8,0.6-3.9,1.8c-1.1,1.2-1.9,2.8-2.4,5c-0.5,2.1-0.4,3.8,0.3,4.8
			c0.7,1.1,1.7,1.6,3.1,1.6c1.4,0,2.6-0.5,3.6-1.4c0.5-0.5,1-1.2,1.5-2.2h4.1c-0.8,2.1-2.1,3.8-3.8,5.1c-1.8,1.3-3.8,2-6.1,2
			c-2.8,0-4.9-0.9-6.1-2.7c-1.2-1.8-1.5-4.2-0.8-7.3C462.3,470.8,463.7,468.2,466,466.4"/>
		<path class="st0" d="M489.9,464.4h4.6l2.8,19.2h-4.5l-0.4-3.9h-7.3l-2.2,3.9h-4.3L489.9,464.4z M487,476.3h5l-0.8-7.5L487,476.3z"
			/>
		<path class="st0" d="M517.1,464.4h5.9l-4.2,19.2H515l2.8-13c0.1-0.4,0.2-0.9,0.4-1.6s0.3-1.2,0.3-1.6l-7.2,16.1h-4l-0.2-16.1
			c-0.1,0.4-0.2,0.9-0.3,1.6s-0.3,1.2-0.3,1.6l-2.8,13h-3.8l4.2-19.2h6l0.3,15.1L517.1,464.4z"/>
		<polygon class="st0" points="526.4,483.6 522.3,483.6 526.5,464.4 530.6,464.4 		"/>
		<polygon class="st0" points="534.3,464.4 538.7,464.4 543.6,477.8 546.5,464.4 550.3,464.4 546.2,483.6 542,483.6 537,470 
			534,483.6 530.2,483.6 		"/>
		<path class="st0" d="M565.5,481.9c-1.8,1.5-4.1,2.2-6.9,2.2c-2.8,0-4.8-0.7-6-2.2c-1.6-1.8-2-4.5-1.3-7.9c0.8-3.5,2.3-6.1,4.7-7.9
			c1.8-1.5,4.1-2.2,6.9-2.2c2.8,0,4.8,0.7,6,2.2c1.6,1.8,2,4.4,1.3,7.9C569.5,477.4,567.9,480.1,565.5,481.9 M566.1,474
			c0.5-2.1,0.3-3.8-0.4-5s-1.9-1.8-3.5-1.8s-3.1,0.6-4.3,1.8c-1.2,1.2-2.1,2.8-2.5,5c-0.5,2.2-0.4,3.8,0.4,5
			c0.7,1.2,1.9,1.8,3.5,1.8s3.1-0.6,4.3-1.8C564.8,477.8,565.6,476.1,566.1,474"/>
	</g>
</g>
</svg>
